<svg width="185" height="113" viewBox="0 0 185 113" xmlns="http://www.w3.org/2000/svg"><title>loopwerk</title><g fill="#FFF" fill-rule="evenodd"><path d="M126.374 43.116v30.792H58.686V.508H89.48v6.106H64.928v61.19h55.346V49.356H83.24V18.958h-6.106v36.5h36.897v6.107H71.034v-48.71h18.45v30.26h36.892M0 92.03h3.202v17.755h6.572v3.187H0V92.03zm19.11 10.413a7.22 7.22 0 0 0 2.134 5.17 7.198 7.198 0 0 0 2.335 1.554 7.28 7.28 0 0 0 2.857.56 7.258 7.258 0 0 0 2.845-.56c.87-.36 1.66-.888 2.326-1.553a7.304 7.304 0 0 0 2.126-5.17 7.293 7.293 0 0 0-2.127-5.17 7.092 7.092 0 0 0-2.326-1.546 7.384 7.384 0 0 0-2.844-.556 7.41 7.41 0 0 0-2.86.557 7.21 7.21 0 0 0-4.468 6.715l.002-.002zm18.085 0c0 1.46-.283 2.83-.846 4.104a10.577 10.577 0 0 1-2.317 3.338 11.1 11.1 0 0 1-3.415 2.256c-1.3.557-2.695.833-4.182.833-1.5 0-2.9-.276-4.2-.83a11.166 11.166 0 0 1-3.414-2.257 10.566 10.566 0 0 1-2.31-3.338 10.044 10.044 0 0 1-.848-4.104c0-1.45.284-2.822.847-4.118a10.492 10.492 0 0 1 2.31-3.367 11.13 11.13 0 0 1 3.417-2.25c1.298-.548 2.697-.824 4.198-.824 1.487 0 2.882.276 4.18.824a11.08 11.08 0 0 1 3.416 2.248c.98.95 1.75 2.072 2.316 3.367a10.24 10.24 0 0 1 .845 4.118h.005zm11.52 0a7.206 7.206 0 0 0 2.134 5.17 7.183 7.183 0 0 0 2.333 1.554 7.29 7.29 0 0 0 2.86.56 7.258 7.258 0 0 0 2.844-.56c.87-.36 1.66-.888 2.326-1.553a7.323 7.323 0 0 0 1.557-2.318 7.2 7.2 0 0 0 .57-2.853 7.18 7.18 0 0 0-.57-2.852 7.312 7.312 0 0 0-1.558-2.316 7.082 7.082 0 0 0-2.326-1.546 7.384 7.384 0 0 0-2.845-.556c-1.013 0-1.967.19-2.857.557a7.1 7.1 0 0 0-2.333 1.545 7.195 7.195 0 0 0-2.136 5.17v-.002zm18.083 0c0 1.46-.283 2.83-.846 4.104a10.577 10.577 0 0 1-2.315 3.338 11.1 11.1 0 0 1-3.415 2.256c-1.3.557-2.694.833-4.18.833-1.502 0-2.9-.276-4.2-.83a11.166 11.166 0 0 1-3.415-2.257 10.566 10.566 0 0 1-2.31-3.338 10.043 10.043 0 0 1-.847-4.104c0-1.45.283-2.822.846-4.118a10.492 10.492 0 0 1 2.31-3.367 11.13 11.13 0 0 1 3.416-2.25c1.3-.548 2.698-.824 4.2-.824 1.486 0 2.88.276 4.18.824a11.08 11.08 0 0 1 3.415 2.248c.98.95 1.748 2.072 2.315 3.367.563 1.296.846 2.668.846 4.118zm12.432-7.327v8.877c.18.03.372.044.57.044 1.167 0 2.16-.438 2.98-1.31.822-.872 1.23-1.925 1.23-3.158 0-1.235-.408-2.287-1.23-3.15-.82-.87-1.813-1.305-2.98-1.305h-.57zm0 12.01v5.817h-3.187V92H79.8c1.98 0 3.67.74 5.064 2.218 1.395 1.48 2.09 3.265 2.09 5.35 0 2.1-.695 3.884-2.09 5.367-1.395 1.48-3.084 2.22-5.064 2.22-.19 0-.38-.012-.57-.03zm25.544 5.846l-5.72-20.332h3.33l3.16 11.283 3.598-11.11.06-.173.223.07.23-.07.058.172 3.6 11.126 3.156-11.298h3.33l-5.72 20.332h-1.18l-3.476-10.687-3.47 10.687h-1.18zm25.433-20.942h9.705v3.186h-6.503v5.69h6.5v3.186h-6.502v5.693h6.502v3.187h-9.705V92.03h.002zm23.3 3.116v8.847c.18.03.37.044.57.044 1.166 0 2.16-.438 2.98-1.31.82-.872 1.23-1.925 1.23-3.158 0-1.235-.41-2.287-1.23-3.15-.82-.87-1.814-1.305-2.98-1.305-.192 0-.38.008-.57.03zm0 11.98v5.817h-3.188V92h3.185v.014c.192-.01.38-.015.57-.015 1.98 0 3.67.74 5.065 2.217 1.395 1.48 2.09 3.265 2.09 5.35 0 2.1-.695 3.884-2.09 5.367-.35.368-.717.692-1.096.964l3.802 7.102h-3.416l-3.16-5.947c-.387.066-.788.1-1.193.1a6.01 6.01 0 0 1-.57-.03v.003zM185.06 92l-4.755 8.14 4.427 12.832h-3.4l-3.16-9.178-2.717 4.64v4.538l-3.202-.03V92h3.202v10.13L181.372 92h3.688z"/></g></svg>