<svg width="743" height="473" viewBox="0 0 743 473" xmlns="http://www.w3.org/2000/svg"><title>All</title><g fill="#F5B240" fill-rule="evenodd"><path d="M529 182.854V315H214V0h143.31v26.2H243.044v262.607h257.562V209.63H328.263V79.176h-28.41v156.65h171.705v26.2h-200.1V52.98h85.853v129.876H529M0 387h12.775v72.914H39V473H0v-86M76.917 430.06c0 4.145.76 8.015 2.292 11.632 1.53 3.617 3.644 6.77 6.335 9.453 2.675 2.704 5.815 4.804 9.428 6.334 3.6 1.532 7.452 2.282 11.553 2.282 4.062 0 7.9-.75 11.497-2.283 3.6-1.53 6.737-3.63 9.4-6.335 2.663-2.683 4.76-5.836 6.292-9.453 1.53-3.617 2.303-7.487 2.303-11.63 0-4.144-.772-8.014-2.303-11.632-1.532-3.617-3.63-6.77-6.292-9.457-2.663-2.7-5.8-4.788-9.4-6.3-3.596-1.5-7.435-2.268-11.497-2.268-4.1 0-7.953.767-11.553 2.267-3.613 1.513-6.753 3.6-9.428 6.3-2.69 2.69-4.805 5.84-6.336 9.458-1.533 3.618-2.293 7.488-2.293 11.63zm73.083 0c0 5.96-1.148 11.542-3.423 16.734-2.29 5.208-5.4 9.743-9.355 13.613-3.94 3.874-8.55 6.933-13.8 9.2-5.25 2.267-10.887 3.393-16.896 3.393-6.065 0-11.715-1.126-16.968-3.393-5.25-2.267-9.844-5.326-13.8-9.2-3.94-3.87-7.064-8.405-9.34-13.613C64.145 441.602 63 436.02 63 430.06c0-5.912 1.144-11.51 3.42-16.793 2.274-5.285 5.398-9.86 9.338-13.735 3.956-3.854 8.55-6.916 13.8-9.168C94.81 388.13 100.46 387 106.526 387c6.01 0 11.647 1.13 16.896 3.364 5.25 2.252 9.86 5.314 13.8 9.168 3.956 3.874 7.064 8.45 9.355 13.735 2.275 5.282 3.423 10.88 3.423 16.794zM196.917 430.06c0 4.145.76 8.015 2.292 11.632 1.53 3.617 3.644 6.77 6.335 9.453 2.675 2.704 5.815 4.804 9.428 6.334 3.6 1.532 7.452 2.282 11.557 2.282 4.058 0 7.897-.75 11.493-2.283 3.6-1.53 6.737-3.63 9.4-6.335 2.663-2.683 4.76-5.836 6.292-9.453 1.53-3.617 2.303-7.487 2.303-11.63 0-4.144-.772-8.014-2.303-11.632-1.532-3.617-3.63-6.77-6.292-9.457-2.663-2.7-5.8-4.788-9.4-6.3-3.596-1.5-7.435-2.268-11.493-2.268-4.105 0-7.957.767-11.557 2.267-3.613 1.513-6.753 3.6-9.428 6.3-2.69 2.69-4.805 5.84-6.336 9.458-1.533 3.618-2.293 7.488-2.293 11.63zm73.083 0c0 5.96-1.148 11.542-3.423 16.734-2.29 5.208-5.4 9.743-9.355 13.613-3.94 3.874-8.55 6.933-13.8 9.2-5.25 2.267-10.887 3.393-16.892 3.393-6.07 0-11.72-1.126-16.968-3.393-5.253-2.267-9.848-5.326-13.804-9.2-3.94-3.87-7.064-8.405-9.34-13.613-2.274-5.192-3.418-10.775-3.418-16.733 0-5.912 1.144-11.51 3.42-16.793 2.274-5.285 5.398-9.86 9.338-13.735 3.956-3.854 8.55-6.916 13.804-9.168 5.25-2.234 10.9-3.364 16.968-3.364 6.005 0 11.643 1.13 16.892 3.364 5.25 2.252 9.86 5.314 13.8 9.168 3.956 3.874 7.064 8.45 9.355 13.735 2.275 5.282 3.423 10.88 3.423 16.794zM320.85 399.8v36.448c.73.123 1.5.18 2.303.18 4.702 0 8.71-1.798 12.02-5.38 3.307-3.58 4.956-7.9 4.956-12.963 0-5.063-1.65-9.387-4.957-12.94-3.31-3.563-7.318-5.345-12.02-5.345h-2.302zm0 49.31V473H308v-86h15.153c7.984 0 14.795 3.035 20.416 9.112 5.624 6.073 8.43 13.403 8.43 21.973 0 8.61-2.806 15.94-8.43 22.03-5.622 6.08-12.433 9.113-20.417 9.113-.774 0-1.528-.045-2.302-.12zM417.157 473L394 390h13.488l12.783 46.058 14.574-45.352.24-.706.91.286.923-.286.24.706 14.572 45.413L464.515 390H478l-23.157 83h-4.782l-14.066-43.625L421.94 473h-4.783M520 387h39v13.086h-26.135v23.365H559v13.087h-26.135v23.377H559V473h-39v-86M613.72 399.882v36.228c.718.122 1.48.18 2.274.18 4.658 0 8.62-1.794 11.897-5.365 3.278-3.57 4.906-7.878 4.906-12.927 0-5.05-1.628-9.36-4.905-12.903-3.275-3.554-7.238-5.33-11.896-5.33-.762 0-1.512.027-2.275.117zm0 49.053v23.823H601V387h12.72v.057a38.34 38.34 0 0 1 2.274-.057c7.902 0 14.643 3.026 20.21 9.086 5.568 6.057 8.342 13.366 8.342 21.912 0 8.587-2.774 15.896-8.342 21.97a31.703 31.703 0 0 1-4.378 3.95L647 473h-13.63l-12.62-24.352c-1.54.27-3.14.405-4.756.405-.762 0-1.512-.045-2.275-.118zM743 387l-19.678 33.378L741.647 473h-14.075l-13.08-37.64-11.24 19.032V473L690 472.877V387h13.25v41.542L727.743 387H743"/></g></svg>
