<svg height="306" viewBox="0 0 1001 306" width="1001" xmlns="http://www.w3.org/2000/svg" xmlns:xlink="http://www.w3.org/1999/xlink"><filter id="a"><feColorMatrix in="SourceGraphic" type="matrix" values="0 0 0 0 0.341176 0 0 0 0 0.341176 0 0 0 0 0.341176 0 0 0 1.000000 0"/></filter><g fill="none" fill-rule="evenodd" filter="url(#a)"><g fill="#000" fill-rule="nonzero" transform="translate(0 8)"><path d="m288.870138 144.646c.108862 79.593-64.323138 144.203-143.917138 144.315-.066 0-.133 0-.199 0-79.529-.156-143.96-64.587-144.114-144.116.264-79.451 64.664-143.761 144.114-143.915 79.593 0 144.116138 64.522 144.116138 144.115zm-8.688138 0c-11.287-24.88-29.49-45.99-52.441-60.81-24.427-16.714-53.389-25.544-82.986-25.3-29.719-.219-58.799 8.604-83.387 25.3-22.774 14.912-40.826 36.004-52.042 60.81 11.257 24.872 29.293 46.071 52.042 61.167 24.67 16.477 53.722 25.167 83.387 24.942 29.546.256 58.478-8.439 82.986-24.942 22.925-15.006 41.113-36.218 52.441-61.167zm-58.765 0c.018 42.227-34.2 76.476-76.428 76.494009-20.301.009991-39.769-8.053009-54.119-22.411009-29.847-29.849-29.847-78.241 0-108.087 29.849-29.848 78.241-29.848 108.087 0 14.668 14.096 22.806 33.662 22.46 54.004z"/><path d="m314.531 144.646c0-74.421 61.367-135.79164562 141.394-135.79164562 42.588-.20435438 82.969 18.93964562 109.768 52.04364562l-37.031 37.23s-26.02-37.19-72.537-37.19c-46.23 0-83.706 37.478-83.706 83.708s37.476 83.706 83.706 83.706c48.359 0 74.42-37.188 74.42-37.188l37.189 37.188c-27.329 33.45-68.419 52.61-111.609 52.042-80.226.08-141.594-61.33-141.594-135.748z"/><path d="m588.39 14.42h109.768c52.042 0 83.706 31.625 83.706 68.855.311 23.499-13.674 44.834-35.348 53.924 0 0 48.359 13.049 48.359 63.25 0 40.951-33.468 74.419-89.272 74.419h-117.213zm106.043 100.481c18.615 0 29.744-11.169 29.744-26.061 0-14.893-11.129-26.062-29.744-26.062h-50.238v52.041zm7.448 111.61c22.296 0 35.348-13.012 35.348-31.627s-13.052-31.623-35.348-31.623h-57.687v63.25z"/><path d="m801.601 239.521 37.189-37.192c15.596 17.594 37.901 27.772 61.408 28.023 29.744 0 42.796-13.009 42.796-29.782 0-44.638-130.265-24.02-130.265-115.333 0-40.914 35.348-76.062 94.914-76.062 57.646 0 87.431 35.349 87.431 35.349l-37.229 37.19c-12.415-13.709-29.872-21.773-48.359-22.339-28.022 0-39.069 11.169-39.069 26.061 0 44.635 130.224 24.019 130.224 115.333 0 42.794-37.188 80.064-98.6 80.064-66.975-.359-100.44-41.312-100.44-41.312z"/></g><path d="m203 .309h595.28v305.272h-595.28z"/></g></svg>