<svg height="473" viewBox="0 0 743 473" width="743" xmlns="http://www.w3.org/2000/svg"><g fill="#F1A948" fill-rule="evenodd"><path d="m529 315h-315v-315h143v26h-114v263h258v-79h-173v-131h-28v157h172v26h-201v-209h86v130h172z"/><path d="m0 387h12.775243v72.913579h26.224757v13.086421h-39z"/><path d="m76.9174137 430.061172c0 4.143399.7597195 8.013562 2.2912815 11.63088 1.5315621 3.617318 3.645037 6.769727 6.3363835 9.453149 2.6751823 2.703813 5.8150867 4.804059 9.4277951 6.333365 3.6005853 1.533384 7.4517162 2.283763 11.5533932 2.283763 4.061266 0 7.900274-.750379 11.496818-2.283763 3.600585-1.529306 6.736449-3.629552 9.399508-6.333365 2.663059-2.683422 4.76037-5.835831 6.291932-9.453149s2.303404-7.487481 2.303404-11.63088-.771842-8.013562-2.303404-11.63088-3.628873-6.769727-6.291932-9.457227c-2.663059-2.699734-5.798923-4.787746-9.399508-6.30074-3.596544-1.500758-7.435552-2.26745-11.496818-2.26745-4.101677 0-7.9528079.766692-11.5533932 2.26745-3.6127084 1.512994-6.7526128 3.601006-9.4277951 6.30074-2.6913465 2.6875-4.8048214 5.839909-6.3363835 9.457227-1.531562 3.617318-2.2912815 7.487481-2.2912815 11.63088zm73.0825863 0c0 5.958175-1.147661 11.541161-3.422779 16.732644-2.291281 5.207796-5.398857 9.742698-9.355056 13.612861-3.940034 3.874241-8.550884 6.932853-13.800223 9.200303-5.249338 2.267451-10.886618 3.39302-16.895675 3.39302-6.065633 0-11.7150356-1.125569-16.9684148-3.39302-5.2493381-2.26745-9.8440243-5.326062-13.800223-9.200303-3.9400343-3.870163-7.0637744-8.405065-9.3388917-13.612861-2.2751173-5.191483-3.4187375-10.774469-3.4187375-16.732644 0-5.913315 1.1436202-11.512614 3.4187375-16.793816 2.2751173-5.285281 5.3988574-9.860964 9.3388917-13.735205 3.9561987-3.853851 8.5508849-6.91654 13.800223-9.167678 5.2533792-2.234826 10.9027818-3.364473 16.9684148-3.364473 6.009057 0 11.646337 1.129647 16.895675 3.364473 5.249339 2.251138 9.860189 5.313827 13.800223 9.167678 3.956199 3.874241 7.063775 8.449924 9.355056 13.735205 2.275118 5.281202 3.422779 10.880501 3.422779 16.793816z"/><path d="m196.917414 430.061172c0 4.143399.759719 8.013562 2.291281 11.63088s3.645037 6.769727 6.336384 9.453149c2.675182 2.703813 5.815086 4.804059 9.427795 6.333365 3.600585 1.533384 7.451716 2.283763 11.557434 2.283763 4.057225 0 7.896233-.750379 11.492777-2.283763 3.600585-1.529306 6.736449-3.629552 9.399508-6.333365 2.663059-2.683422 4.76037-5.835831 6.291932-9.453149s2.303404-7.487481 2.303404-11.63088-.771842-8.013562-2.303404-11.63088-3.628873-6.769727-6.291932-9.457227c-2.663059-2.699734-5.798923-4.787746-9.399508-6.30074-3.596544-1.500758-7.435552-2.26745-11.492777-2.26745-4.105718 0-7.956849.766692-11.557434 2.26745-3.612709 1.512994-6.752613 3.601006-9.427795 6.30074-2.691347 2.6875-4.804822 5.839909-6.336384 9.457227s-2.291281 7.487481-2.291281 11.63088zm73.082586 0c0 5.958175-1.147661 11.541161-3.422779 16.732644-2.291281 5.207796-5.398857 9.742698-9.355056 13.612861-3.940034 3.874241-8.550884 6.932853-13.800223 9.200303-5.249338 2.267451-10.886618 3.39302-16.891634 3.39302-6.069674 0-11.719077-1.125569-16.968415-3.39302-5.253379-2.26745-9.848065-5.326062-13.804264-9.200303-3.940034-3.870163-7.063774-8.405065-9.338891-13.612861-2.275118-5.191483-3.418738-10.774469-3.418738-16.732644 0-5.913315 1.14362-11.512614 3.418738-16.793816 2.275117-5.285281 5.398857-9.860964 9.338891-13.735205 3.956199-3.853851 8.550885-6.91654 13.804264-9.167678 5.249338-2.234826 10.898741-3.364473 16.968415-3.364473 6.005016 0 11.642296 1.129647 16.891634 3.364473 5.249339 2.251138 9.860189 5.313827 13.800223 9.167678 3.956199 3.874241 7.063775 8.449924 9.355056 13.735205 2.275118 5.281202 3.422779 10.880501 3.422779 16.793816z"/><path d="m320.850806 399.799599v36.448264c.729839.123192 1.5.180681 2.30242.180681 4.701613 0 8.709677-1.798596 12.020161-5.379363 3.306452-3.580767 4.955645-7.900683 4.955645-12.963854 0-5.063172-1.649193-9.387194-4.955645-12.939216-3.310484-3.564341-7.318548-5.346512-12.020161-5.346512zm0 49.309459v23.890942h-12.850806v-86h15.153226c7.983871 0 14.794355 3.034618 20.415322 9.112066 5.625 6.073342 8.431452 13.403237 8.431452 21.973261 0 8.611087-2.806452 15.940983-8.431452 22.03075-5.620967 6.077448-12.431451 9.112066-20.415322 9.112066-.774194 0-1.528226-.04517-2.30242-.119085z"/><path d="m417.157195 473-23.157195-83h13.48778l12.783225 46.057591 14.572957-45.351399.238901-.706192.911063.285742.923211-.285742.238901.706192 14.572957 45.41263 12.787274-46.118822h13.483731l-23.157195 83h-4.782067l-14.066812-43.624699-14.054664 43.624699z"/><path d="m520 387h39v13.086421h-26.135305v23.364209h26.135305v13.086421h-26.135305v23.376528h26.135305v13.086421h-39z"/><path d="m613.719243 399.882392v36.227121c.718376.122846 1.480653.180174 2.274857.180174 4.65747 0 8.62051-1.793544 11.897102-5.364251 3.276593-3.570708 4.904911-7.878488 4.904911-12.927436s-1.628318-9.360823-4.904911-12.902866c-3.276592-3.554328-7.239632-5.331492-11.897102-5.331492-.762276 0-1.51258.028663-2.274857.11875zm0 49.052186v23.823826h-12.719243v-85.758404h12.719243v.057328c.762277-.045043 1.512581-.057328 2.274857-.057328 7.902135 0 14.642895 3.026093 20.210307 9.086468 5.567413 6.05628 8.341142 13.365584 8.341142 21.911532 0 8.586897-2.773729 15.896201-8.341142 21.96886-1.396841 1.506904-2.865521 2.833635-4.378101 3.951529l15.173694 29.081611h-13.629186l-12.619469-24.352062c-1.540517.27026-3.140899.40539-4.757245.40539-.762276 0-1.51258-.045043-2.274857-.11875z"/><path d="m743 387-19.677911 33.378153 18.324667 52.621847h-14.074569l-13.081362-37.638583-11.23979 19.030468v18.608115l-13.251035-.123015v-85.876985h13.251035v41.542269l24.490825-41.542269z"/></g></svg>
