<svg height="11" viewBox="0 0 95 11" width="95" xmlns="http://www.w3.org/2000/svg" xmlns:xlink="http://www.w3.org/1999/xlink"><filter id="a"><feColorMatrix in="SourceGraphic" type="matrix" values="0 0 0 0 0.341176 0 0 0 0 0.341176 0 0 0 0 0.341176 0 0 0 1.000000 0"/></filter><g fill="none" fill-rule="nonzero" filter="url(#a)"><path d="m9.08034268.46027331v9.77965999h-.7962797v-4.95997999c0-1.28541.0696-3.43683.0561-3.43683h-.013999c-.014499 0-.4331399.75449-.8385601 1.481l-2.598271 4.51279h-.4331499l-2.5985501-4.51279c-.40514-.72651-.82448-1.481-.83784-1.481h-.0145c-.0142 0 .0558 2.15142.0558 3.43683v4.95997999h-.79651v-9.77965999h.75517l2.5838201 4.45657c.88055 1.49447 1.0482598 1.92789 1.06177 1.92789h.0141c.0146 0 .1820302-.43342 1.0617502-1.92789l2.5849497-4.45657z" fill="#262424"/><path d="m18.061933 9.47126331v.76866999h-6.44053v-9.77965999h6.35717v.76824h-5.56066v3.40886h4.48483v.74044h-4.48483v4.09345z" fill="#262424"/><path d="m26.695353.46027331v.76824h-3.35304v9.01141999h-.81044v-9.01141999h-3.33883v-.76824z" fill="#262424"/><path d="m30.951122 5.75511331c1.773841 0 2.724261-.9361 2.724261-2.27736 0-1.43894-1.048279-2.24924-2.724261-2.24924h-2.025679v4.5266zm2.947501 4.48481999-2.33303-3.81439999c-.209719.0281-.432959.0413-.656619.0413h-1.983531v3.77309999h-.796539v-9.77969999h2.78007c2.2352 0 3.590499 1.15919 3.590499 3.01748 0 1.42505-.782601 2.40302-2.123869 2.79372l2.43114 3.96849999z" fill="#262424"/><path d="m40.888703 9.65247331c2.375252 0 4.261202-1.75975 4.261202-4.30263 0-2.57073-1.88595-4.30294-4.261202-4.30294-2.388309 0-4.24674 1.73221-4.24674 4.30294 0 2.54288 1.858431 4.30263 4.24674 4.30263zm0-9.38789c2.80811 0 5.085291 2.13762 5.085291 5.08526 0 2.94802-2.277181 5.08535999-5.085291 5.08535999-2.807759 0-5.07083-2.13733999-5.07083-5.08535999 0-2.94764 2.263071-5.08526 5.07083-5.08526" fill="#262424"/><g fill="#ed1157"><path d="m54.546494 8.42326331v1.81666999h-6.775802v-9.77965999h1.94169v7.96299z"/><path d="m62.780685.46027331-3.7719 5.29484v4.48481999h-1.927932v-4.48481999l-3.758149-5.29484h2.179111l2.012249 2.80776c.265289.39137.516458.72651.530569.72651h.0141c.0141 0 .265279-.33514.530569-.72651l1.997781-2.80776z"/><path d="m65.857255 5.16833331h1.732489c1.075269 0 1.578329-.69839 1.578329-1.43908 0-.76853-.51717-1.45313-1.578329-1.45313h-1.732489zm3.53342 5.07159999-1.940981-3.33966999c-.0423 0-.0698 0-.11218 0h-1.480259v3.33966999h-1.942391v-9.77965999h3.42265c2.402771 0 3.84175 1.29907 3.84175 3.26898 0 1.34126-.65617 2.31965-1.843972 2.80747l2.235902 3.70320999z"/><path d="m73.042983 10.2399333h1.941942v-9.77966999h-1.941942z"/><path d="m84.139264 3.36613331c-.517879-.72651-1.494721-1.18745-2.45887-1.18745-1.83056 0-3.045881 1.31287-3.045881 3.17116 0 1.91408 1.299281 3.14329 3.045881 3.14329 1.116901 0 2.15089-.58636 2.640189-1.43895l1.9558.51649c-.809619 1.73247-2.542468 2.86452999-4.595989 2.86452999-2.807751 0-5.07223-2.13733999-5.07223-5.08535999 0-2.94764 2.264479-5.08526 5.07223-5.08526 1.927939 0 3.57682 1.01974 4.442179 2.58452z"/><path d="m92.872983 3.43616331c-.22402-.97815-1.075269-1.48114-1.942399-1.48114-.89394 0-1.465789.43314-1.465789 1.01974 0 .78246 1.10349 1.06179 2.332919 1.48072 1.424519.48919 3.05894 1.24382 3.05894 2.98965 0 1.7468-1.509191 2.99006999-3.743679 2.99006999-2.053522 0-3.465341-1.15933999-3.99592-2.93452999l1.872548-.50189c.2099.87974.99095 1.70381 2.20662 1.70381 1.04775 0 1.59244-.51745 1.59244-1.17326 0-.99261-1.326089-1.22964-2.709328-1.71813-1.159582-.41935-2.612671-1.02002-2.612671-2.7244 0-1.52273 1.508829-2.82222 3.576461-2.82222 1.829858 0 3.28295 1.1176 3.70205 2.65437z"/></g></g></svg>