<?xml version="1.0" encoding="UTF-8"?>
<svg width="87px" height="20px" viewBox="0 0 87 20" version="1.1" xmlns="http://www.w3.org/2000/svg" xmlns:xlink="http://www.w3.org/1999/xlink">
    <title>sentry-wordmark-dark-95x28 2</title>
    <g id="Page-1" stroke="none" stroke-width="1" fill="none" fill-rule="evenodd">
        <g id="sentry-wordmark-dark-95x28" transform="translate(0.707207, 0.707207)" fill="#9E9E9E" fill-rule="nonzero">
            <path d="M12.4099099,0.967117117 C12.0483116,0.366995214 11.3988405,7.10229367e-05 10.6981982,7.10229367e-05 C9.99755588,7.10229367e-05 9.34808483,0.366995214 8.98648649,0.967117117 L6.17072072,5.78986486 C10.547894,7.97520048 13.4386544,12.3170411 13.7664414,17.1984234 L11.7894144,17.1984234 C11.4622521,13.0144223 8.94556081,9.31589536 5.17364865,7.4759009 L2.56756757,11.981982 C4.68534214,12.9317723 6.17385472,14.8944157 6.51734234,17.1898649 L1.97702703,17.1898649 C1.86763862,17.1821272 1.76951533,17.119784 1.71603933,17.0240447 C1.66256333,16.9283054 1.66093628,16.8120634 1.71171171,16.7148649 L2.96981982,14.5752252 C2.54357633,14.219594 2.05643088,13.9441249 1.53198198,13.7621622 L0.286711712,15.9018018 C0.0248485859,16.3509626 -0.0460554827,16.8863427 0.0898598843,17.3881841 C0.225775251,17.8900254 0.557168111,18.3164501 1.00990991,18.5720721 C1.30522158,18.738461 1.63807237,18.8268285 1.97702703,18.8288288 L8.19481982,18.8288288 C8.42969553,15.9305321 7.13105615,13.1206011 4.7713964,11.4213964 L5.75990991,9.70968468 C8.73883033,11.7556795 10.414939,15.2234344 10.1675676,18.8288288 L15.4353604,18.8288288 C15.6850086,13.3659089 13.0101862,8.18252373 8.41306306,5.22072072 L10.4114865,1.7972973 C10.5041735,1.64200134 10.7047079,1.59043534 10.8608108,1.68175676 C11.0876126,1.80585586 19.5434685,16.5608108 19.7018018,16.731982 C19.7585796,16.8337899 19.7565275,16.9581992 19.6964228,17.0580791 C19.636318,17.157959 19.5273542,17.2180321 19.4108108,17.2155405 L17.3738739,17.2155405 C17.3995495,17.7604354 17.3995495,18.3039039 17.3738739,18.8459881 L19.4193694,18.8459881 C19.9440122,18.8493801 20.4482238,18.6427786 20.819612,18.2721943 C21.1910002,17.9016099 21.3986937,17.3978473 21.3964153,16.8731982 C21.3966511,16.5301186 21.3050406,16.1932281 21.1310811,15.8975225 L12.4099099,0.967117117 Z M53.2,12.1018018 L46.8837838,3.9454955 L45.309009,3.9454955 L45.309009,14.8790541 L46.9051802,14.8790541 L46.9051802,6.50022523 L53.4011261,14.8790541 L54.7961712,14.8790541 L54.7961712,3.9454955 L53.2,3.9454955 L53.2,12.1018018 Z M37.2939189,10.0734234 L42.9554054,10.0734234 L42.9554054,8.6527027 L37.2896396,8.6527027 L37.2896396,5.36193694 L43.6786036,5.36193694 L43.6786036,3.94121622 L35.6635135,3.94121622 L35.6635135,14.8790541 L43.7599099,14.8790541 L43.7599099,13.4583333 L37.2896396,13.4583333 L37.2939189,10.0734234 Z M30.6353604,8.68693694 L30.6353604,8.68693694 C28.4315315,8.15630631 27.8153153,7.73693694 27.8153153,6.71846847 C27.8153153,5.8027027 28.6240991,5.18220721 29.8308559,5.18220721 C30.9298286,5.21439355 31.9898031,5.59670402 32.8563063,6.27342342 L33.7121622,5.06238739 C32.6151959,4.20245987 31.2543403,3.74884135 29.8608108,3.7786036 C27.6954955,3.7786036 26.1849099,5.06238739 26.1849099,6.88963964 C26.1849099,8.85810811 27.4686937,9.53851351 29.8051802,10.1076577 C31.8849099,10.5869369 32.5225225,11.031982 32.5225225,12.0290541 C32.5225225,13.0261261 31.6666667,13.6423423 30.3443694,13.6423423 C29.0279338,13.6363119 27.7612215,13.138784 26.7925676,12.2472973 L25.8297297,13.3984234 C27.070435,14.4644964 28.652936,15.0492016 30.2887387,15.0459595 C32.6337838,15.0459595 34.1400901,13.7835586 34.1400901,11.8322072 C34.1272523,10.1804054 33.1515766,9.29459459 30.6353604,8.68693694 Z M83.7454955,3.9454955 L80.4547297,9.08063063 L77.1853604,3.9454955 L75.2768018,3.9454955 L79.5945946,10.556982 L79.5945946,14.8833333 L81.2378378,14.8833333 L81.2378378,10.5056306 L85.5855856,3.9454955 L83.7454955,3.9454955 Z M56.0885135,5.42612613 L59.6702703,5.42612613 L59.6702703,14.8833333 L61.3135135,14.8833333 L61.3135135,5.42612613 L64.8952703,5.42612613 L64.8952703,3.9454955 L56.0927928,3.9454955 L56.0885135,5.42612613 Z M72.4952703,10.6126126 C74.1470721,10.1547297 75.0628378,8.99932432 75.0628378,7.34752252 C75.0628378,5.2463964 73.5265766,3.9240991 71.0488739,3.9240991 L66.1876126,3.9240991 L66.1876126,14.8747748 L67.8137387,14.8747748 L67.8137387,10.9463964 L70.5738739,10.9463964 L73.3468468,14.8833333 L75.2468468,14.8833333 L72.2513514,10.6810811 L72.4952703,10.6126126 Z M67.8094595,9.54279279 L67.8094595,5.39189189 L70.8777027,5.39189189 C72.4781532,5.39189189 73.3939189,6.14932432 73.3939189,7.46306306 C73.3939189,8.7768018 72.413964,9.54279279 70.8948198,9.54279279 L67.8094595,9.54279279 Z" id="Shape"></path>
        </g>
    </g>
</svg>