<svg height="382" viewBox="0 0 1550 382" width="1550" xmlns="http://www.w3.org/2000/svg" xmlns:xlink="http://www.w3.org/1999/xlink"><filter id="a"><feColorMatrix in="SourceGraphic" type="matrix" values="0 0 0 0 0.341176 0 0 0 0 0.341176 0 0 0 0 0.341176 0 0 0 1.000000 0"/></filter><g fill="#00b0f6" fill-rule="nonzero" filter="url(#a)"><path d="m383.34.48c10.46-.66 22.29-.54 30.94 6.21 4.57 3.44 2.71 10.22-.94 13.6-17.4 16.29-34.81 32.57-52.22 48.84-3.43 3.27-6.98 6.61-11.41 8.46-4.65 1.99-9.8 1.09-14.69 1.29-4.99-.15-10 .32-14.96-.26-5-.96-6.51-7.52-3.8-11.34 10.8-17.23 21.26-34.67 32.13-51.86 8.21-10.5 22.35-13.64 34.95-14.94z"/><path d="m43.2 30.23c23.92-17.84 54.38-24.63 83.79-24.9 22.78-.16 45.92 3.39 66.74 12.95 17.79 8.18 33.98 20.97 43.81 38.12 5.25 9.23 8.69 20.02 6.91 30.71-1.17 8.72-6.12 16.95-13.62 21.65-8.89 5.59-20.1 7.01-30.28 4.85-11.11-2.46-20.17-10.85-25.04-20.93-3.66-7.77-7.55-15.52-12.94-22.25-6.5-8.42-16-14.71-26.6-16.37-11.92-1.92-24.88-.04-34.9 7.01-7.78 5.35-13.02 13.86-15.24 22.96-2.91 11.84-2.16 25.12 4.59 35.57 8.11 12.69 21.47 20.64 34.5 27.47 30.55 15.56 64 26.32 91.11 47.94 13.33 10.56 24.49 24.14 30.97 39.96 7.12 17.37 8.92 36.63 6.82 55.19-2.32 19.98-10.8 39.33-24.62 54.02-12.47 13.5-28.78 23.03-46.07 28.95-16.01 5.58-32.93 7.92-49.79 8.87h-13.98c-32.45-1.11-65.38-11.64-89.9-33.46-15.08-13.48-27.5-31.53-29.46-52.12v-6.87c.8-6.59 2.92-13.18 7.23-18.34 8.88-11 24.38-14.5 37.83-12.02 12.46 2.06 23.3 10.93 28.23 22.49 3.26 8.02 6.95 15.92 11.98 23 7.68 11.22 18.93 20.67 32.48 23.58 11.84 2.42 24.76.96 35.27-5.22 8.7-5.05 15.01-13.69 17.85-23.27 4.05-13.87 2.28-29.6-5.74-41.75-7.35-11.32-18.58-19.37-30.06-26.11-29.27-16.78-62.05-27.32-89.29-47.64-13.81-10.28-25.78-23.57-32.46-39.59-7.85-18.75-8.87-39.92-5-59.73 4.3-21.74 16.98-41.64 34.88-54.72z"/><path d="m917.42 9.66c10.4-.91 21.26.39 30.6 5.28 7.19 3.77 13.29 10.13 15.6 18.04 2.65 8.67.76 18.57-4.93 25.64-6.07 7.78-15.56 12.14-25.11 13.77-10.8 1.72-22.24.91-32.26-3.69-8.14-3.76-15.06-10.71-17.58-19.45-3.1-10.31.09-22.18 8.2-29.32 6.92-6.34 16.26-9.4 25.48-10.27z"/><path d="m474.09 116.24c20.7-7.92 42.84-11.39 64.88-12.91 21.54-1.21 43.67-.64 64.29 6.35 13.45 4.47 25.79 12.13 35.82 22.15 16.04-15.03 37.37-23.1 58.8-26.54 19.51-2.89 39.63-3.82 59.05.23 19.3 4.06 38.32 13.19 50.79 28.89 10.54 13.01 15.18 29.97 15.08 46.53.04 60.35 0 120.7.02 181.05-.01 3.41-.24 7.41-3.07 9.77-3.01 2.47-7.14 2.06-10.76 2.13-17.37-.14-34.76.23-52.12-.18-5.04-.07-8.82-4.77-8.51-9.67-.11-58.01-.02-116.03-.05-174.04.18-10.89-.47-22.46-6.34-31.99-4.74-7.96-13.35-13.03-22.37-14.52-8.72-1.38-17.95-1.19-26.26 2.04-6.51 2.5-11.95 7.53-15.07 13.75-3.86 7.6-4.92 16.27-4.95 24.7-.01 59.34-.01 118.68 0 178.01-.03 3.07-.24 6.48-2.41 8.88-2.46 2.79-6.46 3.03-9.92 3.01-16.99-.01-33.98 0-50.97 0-3.2-.01-6.79-.33-9.13-2.77-2.34-2.36-2.67-5.86-2.64-9.01v-170.03c.23-11.78-.06-24.44-6.71-34.67-5.25-8.41-14.84-13.25-24.52-14.3-9.1-.88-18.56-.48-27.2 2.74-6.12 2.3-11.34 7.07-13.8 13.18-2.39 5.67-2.79 11.9-2.77 17.98-.01 62.01 0 124.02-.01 186.03-.02 2.96-.53 6.25-2.84 8.35-2.53 2.33-6.18 2.51-9.43 2.5-16.98-.01-33.96 0-50.93 0-2.97-.03-6.27-.23-8.53-2.39-2.55-2.44-2.73-6.19-2.76-9.48.01-70.34 0-140.68 0-211.02.07-7.76.62-16.25 5.71-22.54 5.03-6.07 12.54-9.22 19.63-12.21z"/><path d="m1113.5 103.78c25.5-1.77 51.46-1.54 76.44 4.42 16.21 3.98 32.29 10.59 44.66 22.1 9.9 9.04 16.6 21.38 19.12 34.53 2.2 10.56 1.36 21.41 1.53 32.12 0 55.34 0 110.68-.01 166.01.04 3.41-.68 7.43-3.82 9.38-3.43 2.05-7.61 1.41-11.41 1.54-16.34-.02-32.68.02-49.02-.02-2.94.01-6.21-.43-8.32-2.67-2.3-2.44-2.45-6.01-2.48-9.17-.01-58.66-.01-117.33 0-175.99.15-9.74-1.51-19.97-7.2-28.11-4.6-6.74-11.94-11.25-19.75-13.31-8.88-2.37-18.23-2.29-27.29-1.2-7.87 1.1-16.25 3.83-21.16 10.47-4.25 5.73-5.17 13.12-5.15 20.07-.03 63.02.01 126.05-.02 189.07 0 3.03-.63 6.4-3.03 8.48-2.61 2.32-6.3 2.37-9.59 2.39-17.01-.02-34.03-.01-51.04-.01-3.16-.02-6.77-.25-9.02-2.77-2.26-2.47-2.37-6-2.38-9.15.02-70.99-.04-141.99.03-212.99-.03-8.54 1.93-17.95 8.94-23.57 8.89-7.17 19.97-10.88 30.84-13.88 16.07-4.21 32.58-6.52 49.13-7.74z"/><path d="m1407.5 103.78c26.07-1.81 52.64-1.54 78.13 4.83 17.01 4.36 33.88 11.79 46.12 24.75 12.21 12.58 17.78 30.38 17.59 47.68 0 60.95.07 121.91-.03 182.87.35 4.78-3.04 9.76-8.12 9.8-17.71.4-35.44.04-53.16.18-3.64-.07-7.78.32-10.78-2.17-2.77-2.36-3.02-6.29-3.03-9.66.01-58.34-.01-116.69.01-175.03.17-9.11-1.02-18.58-5.6-26.6-3.82-6.81-10.25-11.96-17.55-14.6-9.94-3.64-20.81-3.65-31.19-2.41-8.26 1.14-17.16 4.23-21.84 11.61-4.59 7.1-4.43 15.89-4.38 24.02v183.9c0 3.06-.61 6.47-3.04 8.57-2.63 2.31-6.34 2.34-9.63 2.37-16.98-.02-33.95-.01-50.92-.01-3-.04-6.35-.17-8.66-2.35-2.6-2.4-2.81-6.18-2.82-9.48.01-70.36-.02-140.72.01-211.08 0-8.21.88-17.3 6.85-23.53 6.25-6.39 14.77-9.88 23.02-12.91 19.04-6.34 39.07-9.2 59.02-10.75z"/><path d="m317.44 109.7c17.49-.63 35.05-.08 52.57-.27 3.9.12 8.26-.59 11.67 1.8 2.88 1.91 3.72 5.58 3.69 8.84.01 80.97 0 161.94 0 242.91.01 3.23-.7 6.89-3.48 8.91-2.54 1.92-5.86 1.94-8.9 2-17-.02-34-.01-51.01-.01-3.17-.01-6.85-.16-9.15-2.68-2.37-2.42-2.5-6.05-2.52-9.22.02-80.69-.04-161.37.03-242.05-.25-4.51 2.11-9.72 7.1-10.23z"/><path d="m893.39 109.67c18.2-.55 36.44-.06 54.66-.25 3.67-.04 8-.07 10.67 2.91 2.25 2.26 2.48 5.61 2.53 8.62 0 80.34-.01 160.68 0 241.03-.07 2.83-.14 5.93-1.94 8.3-2.11 2.86-5.91 3.61-9.26 3.58-17.34.05-34.68 0-52.01.02-3.22.02-6.88-.15-9.3-2.57-2.39-2.44-2.56-6.08-2.57-9.29.04-80.68-.01-161.35.03-242.03-.35-4.58 2.15-9.85 7.19-10.32z"/></g></svg>