<svg height="65" viewBox="0 0 200 65" width="200" xmlns="http://www.w3.org/2000/svg" xmlns:xlink="http://www.w3.org/1999/xlink"><filter id="a"><feColorMatrix in="SourceGraphic" type="matrix" values="0 0 0 0 0.341176 0 0 0 0 0.341176 0 0 0 0 0.341176 0 0 0 1.000000 0"/></filter><mask id="b" fill="#fff"><path d="m13.5862.892c2.6352 0 7.8214.421 11.9186 5.996l-4.5558 3.397c-.9214-1.468-3.0131-4.403-7.6545-4.403-.2924 0-4.0145-.041-5.2269 2.264-.2517.462-.3352.881-.3352 1.342 0 .504.1248.923.3766 1.342.711 1.216 2.3413 1.593 5.0607 2.181l3.0517.67c2.802.63 5.8965 1.468 7.862 3.775.8373.921 1.7152 2.263 1.7152 4.989 0 2.683-.8365 4.738-2.8855 6.499-3.3891744 2.8795349-7.8812267 3.0507415-9.4521315 3.0604383h-.4328305c-1.97265-.0124625-7.33853996-.2518108-11.275738-4.4014383-.5027-.545-1.0455-1.259-1.4214-1.93l4.6407-3.228c1.298 1.928 3.7221 4.445 9.1593 4.445l.1403174-.0004978c.3860773-.0032355 1.2733359-.0275022 2.0341826-.2095022.6276-.125 3.5117-.922 3.5117-3.69 0-.294-.04-1.09-.5427-1.762-1.0035-1.341-3.6793-1.717-5.1435-2.053l-3.5131-.798c-1.5055-.334-3.1365-.67-4.4745-1.383-1.3793-.713-4.2234-2.6-4.2234-6.877 0-.671.0834-2.599 1.129-4.36 1.3379-2.265 4.5586-4.865 10.5372-4.865z" fill="#fff" fill-rule="evenodd"/></mask><mask id="c" fill="#fff"><path d="m6.48.648v24.571h11.7097v5.032h-17.2711v-29.603z" fill="#fff" fill-rule="evenodd"/></mask><mask id="d" fill="#fff"><path d="m.6924.648h5.4373v29.603h-5.4373z" fill="#fff" fill-rule="evenodd"/></mask><mask id="e" fill="#fff"><path d="m6.9607.648 13.1531 20.927v-20.927h5.4379v29.579l.0152.024h-6.4959l-13-20.873v20.873h-5.4386v-29.603z" fill="#fff" fill-rule="evenodd"/></mask><mask id="f" fill="#fff"><path d="m14.9145.893c.8358 0 2.7186.084 4.8496.88 1.9249.755 5.6462 2.725 7.5704 7.841l-5.2697 2.097c-.502-1.425-2.0489-5.829-7.1931-5.829-1.0034 0-3.3455.168-5.3103 2.139-1.4221 1.467-2.9276 3.984-2.9276 8.554 0 1.216 0 5.661 3.3876 8.512 1.4634 1.216 3.0938 1.677 4.9758 1.677 2.9283 0 5.5207-1.425 6.6504-4.193.2503-.587.46-1.3.6269-2.641h-7.36v-4.864h12.42v16.253h-4.7731l.0048-2.583c-2.3834 2.222-4.8083 3.269-8.1124 3.269-1.7972 0-5.8959-.251-9.451-3.732-1.7145-1.718-4.3911-5.409-4.3911-11.53 0-3.774 1.1283-7.716 3.4717-10.693 1.3373-1.677 4.8504-5.157 10.8311-5.157z" fill="#fff" fill-rule="evenodd"/></mask><mask id="g" fill="#fff"><path d="m29.94.113.1069.274 13.8655 35.324-.1096.181-17.238 28.919h-11.9227l-.1062-.275-7.4214-18.896h.0027l-6.5462-16.67.0449-.073 17.3482-28.784zm-8.4034 55.348-4.4483 7.462h7.3786zm19.6724-18.894h-8.4097l-10.0434 16.85 3.3393 8.504zm-22.7883 10.96h-8.5421l5.6373 14.357 5.1503-8.639zm11.0593-16.517-9.3586 15.699 1.7634 4.492 9.3586-15.7zm-14.7938 7.002-4.5317 7.628h7.5269zm10.5614-17.78-9.3442 15.731 3.3483 8.527 9.3573-15.697zm-13.6124 10.012h-8.5421l5.5779 14.205 5.1435-8.657zm24.2138-9.918-5.1497 8.639 2.2441 5.715h8.5421zm-13.1524-6.608-9.3614 15.705 1.6965 4.32 9.349-15.737zm-4.2345-10.781-15.3214 25.42h8.6386l10.0462-16.855zm15.8158 16.347h-7.3807l2.9304 7.464zm-5.2131-16.249-5.1496 8.639 2.2469 5.722h8.5427zm-1.5745-1.035h-7.3744l2.9289 7.457z" fill="#fff" fill-rule="evenodd"/></mask><g fill="none" fill-rule="evenodd" filter="url(#a)" transform="translate(-300 -84)"><g fill="#0096e6" transform="translate(300 84)"><path d="m-4.669-4.108h35.4676v41.113h-35.4676z" mask="url(#b)" transform="translate(54 16)"/><path d="m-4.0814-4.352h27.2711v39.603h-27.2711z" mask="url(#c)" transform="translate(90 17)"/><path d="m-4.3076-4.352h15.4373v39.603h-15.4373z" mask="url(#d)" transform="translate(120 17)"/><path d="m-4.3676-4.352h34.9345v39.603h-34.9345z" mask="url(#e)" transform="translate(138 17)"/><path d="m-4.3883-4.107h36.7228v41.112h-36.7228z" mask="url(#f)" transform="translate(172 16)"/><path d="m-4.429-4.887h53.3414v74.698h-53.3414z" mask="url(#g)"/></g></g></svg>