<svg fill="none" height="19" viewBox="0 0 168 19" width="168" xmlns="http://www.w3.org/2000/svg"><g fill="#9e9f9e"><path d="m14.462 2.12622v-2.12622h-5.68623c-2.93243 0-5.15029.679993-6.66032 2.33188-1.911131 2.01012-1.287569 4.43488 1.24376 6.11662l5.72665 3.8113c1.19994.7994 2.22124 1.5955 1.90774 2.7166-.2663 1.0349-1.59764 1.7183-3.19531 1.7183h-6.34685v2.0963h6.35022c3.06384 0 5.55144-.5937 6.97044-2.3352 1.8639-2.1262.7112-4.5808-1.864-6.3222l-6.35019-4.22595c-1.10893-.70653-1.4224-1.5955-.9741-2.50768.39773-.85912 1.55384-1.27375 2.88186-1.27375z"/><path d="m25.4806 18.9999c5.1065 0 8.5715-3.1611 8.5715-6.5279s-3.465-6.56111-8.5715-6.56111c-5.1064 0-8.5714 3.16114-8.5714 6.56111 0 3.4 3.5121 6.5279 8.5714 6.5279zm0-1.8907c-3.1077 0-3.775-2.5707-3.775-4.6372s.664-4.64055 3.775-4.64055c3.1111 0 3.8223 2.57075 3.8223 4.64055s-.7112 4.6372-3.8223 4.6372z"/><path d="m35.687 14.774c0 2.5143 3.556 4.2259 7.2839 4.2259s7.2839-1.7116 7.2839-4.2259v-8.42195h-4.129v8.62765c0 1.1244-1.5101 1.9239-3.1515 1.9239-1.7325 0-3.1987-.9753-3.1987-2.1296v-8.42195h-4.0886z"/><path d="m56.6353 18.7944v-6.7668c0-1.8907 3.2863-4.07664 4.9278-4.07664 1.419 0 2.0426.70653 2.0426 1.68174v9.1617h4.129v-10.0175c0-1.71823-1.419-2.89909-4.6616-2.89909-3.2425 0-5.2412 1.50925-6.4378 2.95548v-2.71997h-4.1324v12.68108z"/><path d="m81.6989 16.9036v1.8907h4.129v-18.7943h-4.129v8.03719c-1.1966-1.35667-2.9762-2.12623-5.4165-2.12623-4.574 0-6.3503 3.51606-6.3503 6.56114 0 3.045 1.7763 6.5279 6.3503 6.5279 2.4403 0 4.2199-.7696 5.4165-2.0964zm0-2.3352c-.2663 1.36-1.7763 2.3352-3.8189 2.3352-2.5313 0-3.1549-2.5408-3.1549-4.4315s.3101-4.43491 3.1549-4.43491c2.0426 0 3.5526.97521 3.8189 2.30531v4.2293z"/></g><path d="m102.027 10.3425c2.976-.61694 4.753-2.80619 4.753-5.05182 0-2.92895-3.553-5.29068-7.9517-5.29068h-7.9074v18.7943h4.4425v-8.2461h2.2616l5.332 8.2461h5.063l-5.996-8.4551zm-6.6603-1.89068v-6.3256h2.8414c2.3529 0 3.8189 1.5955 3.8189 3.16114s-1.466 3.16114-3.8189 3.16114h-2.8414z" fill="#9e9f9e"/><path d="m119.676 16.6979v2.0964h4.129v-12.67775h-4.129v2.12953c-1.156-1.44622-2.929-2.33519-5.42-2.33519-4.574 0-6.347 3.51606-6.347 6.56111 0 3.045 1.861 6.5279 6.347 6.5279 2.444 0 4.264-.8889 5.42-2.302zm0-2.1295c0 1.0614-1.776 2.3352-3.819 2.3352-2.531 0-3.151-2.5409-3.151-4.4316s.31-4.43489 3.151-4.43489c2.043 0 3.819 1.27043 3.819 2.30539v4.2292z" fill="#9e9f9e"/><path d="m137.476 16.9036v1.8907h4.129v-18.7943h-4.129v8.03719c-1.2-1.35667-2.976-2.12623-5.42-2.12623-4.574 0-6.347 3.51606-6.347 6.56114 0 3.045 1.776 6.5279 6.347 6.5279 2.444 0 4.22-.7696 5.42-2.0964zm0-2.3352c-.27 1.36-1.78 2.3352-3.822 2.3352-2.532 0-3.152-2.5408-3.152-4.4315s.313-4.43491 3.152-4.43491c2.042 0 3.552.97521 3.822 2.30531v4.2293z" fill="#9e9f9e"/><path d="m148.852 6.11657h-4.133v12.68103h4.133zm-4.133-2.09637h4.133v-2.09637h-4.133z" fill="#9e9f9e"/><path d="m163.247 18.7943h4.753l-6.66-6.7668 6.04-5.67545h-4.797l-3.155 3.60562-3.151-3.60562h-5.11l6.306 5.73515-6.926 6.7071h5.063l3.818-4.6107z" fill="#9e9f9e"/></svg>