<svg height="48" viewBox="0 0 210 48" width="210" xmlns="http://www.w3.org/2000/svg" xmlns:xlink="http://www.w3.org/1999/xlink"><filter id="a"><feColorMatrix in="SourceGraphic" type="matrix" values="0 0 0 0 0.341176 0 0 0 0 0.341176 0 0 0 0 0.341176 0 0 0 1.000000 0"/></filter><g fill="none" fill-rule="evenodd" filter="url(#a)"><path d="m83.777648 6.4777648c1.7803306 0 4.8408037.57648801 7.2484889 4.433871-1.3762238 3.0604731-2.3568186 9.2435895-2.4981147 11.4930231-.7093063 11.5156306 3.7273906 22.3473881 8.5851498 22.6441098 3.557835.2147701 6.406364-3.1537285 6.734171-8.6105831.87321-14.347204-3.902598-20.3381578-6.2933272-25.5011165.4041068-2.0035784 3.7980382-5.4144658 7.0054592-5.4144658 1.184062 0 2.616804.59344354 2.975696 1.07385021-.240203.8251691-.480407 1.89619339-.480407 3.44479839 0 8.3138614 5.346644 15.322147 9.978329 15.322147 3.682176 0 5.818573-4.869063 5.818573-8.0821358 0-3.7952127-3.207421-6.8895969-7.954969-9.85964049.833647-.8251691 2.370948-1.4270904 3.682176-1.4270904 6.773734 0 10.320265 8.19799859 12.945546 15.68386489.474755 1.4299163 1.308402 3.4476243 2.967218 3.4476243 2.854181 0 4.043894-18.76694531 8.782964-18.76694531 2.02336 0 3.685002 4.15975661 3.685002 7.35869981 0 2.3766001-.830821 2.6139775-.830821 6.0616019 0 3.7952127 2.020534 6.9998078 4.756026 6.9998078 1.661642 0 2.260738-1.6531642 2.260738-3.6708722 0-7.6017291-5.468159-21.73698893-13.536165-21.73698893-6.067254 0-5.592499 10.45025803-7.728896 10.45025803-2.385077 0-5.711187-10.57177266-17.458543-10.57177266-1.910323 0-3.922379.94950966-5.581195 2.85418082-2.848529-1.90467116-5.230781-2.73266619-7.963447-2.73266619-4.3886566 0-6.2905019 4.51299679-8.0708325 4.51299679-2.1420486 0-4.5101709-4.63451142-11.642797-4.63451142-5.6998838 0-6.6522194 7.59607726-8.6642756 7.59607726-1.7859825 0-4.5158227-7.59607726-7.4830404-7.59607726-4.9962294 0-6.05595 13.18292426-10.4559099 13.18292426-3.4447985 0-14.3274225-13.38921654-17.2805106-13.084017-1.189713.12434055-1.6870752 1.01450585-1.5627347 2.20139292.1667294 1.64186045 1.5796902 6.03899448 2.1561782 8.12169868.9608134 3.6115278 1.8425009 7.570644 2.3342113 8.8338309.4888844 1.2716647 1.8085898 2.1816115 2.8654845 2.0827042.5340992-.0508665.6951767-1.045591.8590801-1.8651082.5990954-2.9361326 1.4383941-5.9316095 2.3822519-5.9316095 1.6672938 0 7.1778409 10.5717728 10.382436 10.5717728 3.9252051 0 4.397134-16.6305487 9.7352999-16.6305487 1.7859825 0 3.0972101 2.1335708 4.2812712 4.7532002.1215147 4.4027858 1.3055758 10.6819836 4.869063 10.6819836 2.4981147 0 3.6878276-5.5755433 1.8990193-10.4502581 0-5.81574661 3.7980386-7.2400111 6.2961533-7.2400111m95.01031 14.2482967c-1.472305-6.1039906-5.934435-15.08476949-12.592307-15.08476949-1.540127 0-4.275619.59626945-4.275619 2.14204857 0 1.66446782 10.458736 1.89336752 10.458736 9.85681452 0 2.9643918-2.72984 7.1269743-6.770908 7.1269743-5.343818 0-10.557643-5.8242244-10.557643-13.9007084 0-7.24001109 4.498867-9.61661116 9.009038-9.61661116 7.844758 0 12.592306 6.42049388 15.084769 11.76148566 1.192539-3.5634871 1.896194-11.76148566 4.874715-11.76148566 1.184061 0 2.020534.59626946 3.45045 3.79803863 3.549358 7.96344703 6.996982 17.10530343 11.753008 17.10530343 1.777505 0 .712132-3.2102469 4.987752-3.2102469 2.014882 0 3.433495 1.6616419 3.433495 3.5719649 0 2.7326662-2.489637 4.8634111-6.287676 4.8634111-11.16239 0-13.533339-16.7464114-15.316495-16.7464114-2.97287 0-2.020534 13.4203016-4.162583 13.4203016-1.901845 0-2.834399-2.2663891-3.088732-3.3261097m-78.786694 12.507529c-.206292 3.317632-1.0088541 4.8153704-2.7920106 4.6966817-2.3652964-.144122-3.4589281-7.5875995-2.9756955-15.4069246.3080255-5.1036144 1.0681984-5.8892206 1.7746788-5.8411799 1.3084017.0762999 4.4480003 9.1955489 3.9930273 16.5514228m-19.3151742 6.9743745c-.1667294 1.9018453-1.658816 3.2017692-3.67935 3.2017692-2.2550854 0-4.3773525-2.3652964-4.1512788-5.3381659.144122-1.9555378 1.299924-3.569139 3.5663131-3.569139 2.6054997 0 4.504519 2.9700436 4.2643157 5.7055357m36.9432732-24.2266259c0 2.0148821-1.07385 3.676524-2.370948 3.676524-1.079502 0-3.566313-1.1812352-3.566313-4.9849257 0-2.9785213 1.05972-4.3914821 1.542953-4.9962293 3.439146 1.0710242 4.394308 3.928031 4.394308 6.304631m46.429892 4.0269383c2.498114 0 3.213073-2.955914 2.619629-4.7418964-.599095-1.7803306-2.732666-3.8065164-6.058776-4.39996-.714958 1.7859825-1.071024 9.1418564 3.439147 9.1418564m-136.7519983 8.4325501c-.3419365 1.079502-1.3281832 3.5069687-1.5994717 5.298603-.5934435 3.9675939 1.480783 6.5815714 3.3854541 7.1806668 2.1392227.5962694 2.9728695-.4747549 3.7980386-2.9728696 1.0710243-3.7980386 1.189713-8.7829643.830821-15.9099386-.469103-9.7409517-5.3409918-21.4996115-17.4528918-21.25658225-10.45590992.22889965-15.08194358 7.00263373-15.56235025 17.33420305-.22607373 4.869063.1186887 9.7353 2.13922265 16.6248968 1.06819836 3.6850018 2.02335986 4.9962294 5.34381774 5.7055357 2.61115156.4747549 2.37660006-2.2522595 1.78315656-5.4709842-1.30274988-7.1241483-1.90467119-10.5632949-1.42426451-18.6426048.46627711-8.54841282 4.39430811-11.87734847 8.66992751-11.87734847 6.4120161-.12151462 9.260545 5.22230317 10.453084 12.94837277.9438578 6.1718128.2345514 9.1418564-.3645439 11.0380498" fill="#575757" fill-rule="nonzero" transform="matrix(1 0 0 -1 .353521 46.777004)"/></g></svg>