<svg height="13" viewBox="0 0 29 13" width="29" xmlns="http://www.w3.org/2000/svg" xmlns:xlink="http://www.w3.org/1999/xlink"><filter id="a"><feColorMatrix in="SourceGraphic" type="matrix" values="0 0 0 0 0.341176 0 0 0 0 0.341176 0 0 0 0 0.341176 0 0 0 1.000000 0"/></filter><g fill="none" fill-rule="evenodd" filter="url(#a)"><path d="m22.806 12.908c2.065 0 3.625-.63 4.468-1.512.436-.49.956-1.246.59-1.834-.323-.518-.857-.616-1.489-.294s-1.349.49-2.164.49c-.787 0-1.616-.294-2.066-.728-.534-.532-.829-1.218-.829-2.03 0-.196.127-.224.338-.042.562.434 1.39.658 2.529.658 2.08 0 3.92-1.386 3.92-3.542 0-2.268-2.164-3.962-5.424-3.962-3.653 0-6.477 2.352-6.477 6.3.014 3.682 2.459 6.496 6.604 6.496zm-15.078-3.864c.394 0 .619.224.886.63l1.18 1.834c.436.714.815 1.204 1.672 1.204s1.25-.336 1.672-1.288c.6403861-1.45201868 1.1575413-2.9553147 1.546-4.494.534-2.128.787-3.444.787-4.522s-.366-1.722-1.546-1.946c-1.616-.294-3.794-.462-6.197-.462-2.402 0-4.595.168-6.21.462-1.18.224-1.518.854-1.518 1.932s.239 2.394.787 4.522c.38843602 1.53869205.9055919 3.04198994 1.546 4.494.421.952.815 1.288 1.672 1.288s1.222-.49 1.672-1.204l1.18-1.834c.253-.406.478-.616.871-.616z" fill="#575757" fill-rule="nonzero"/></g></svg>